<mxfile host="app.diagrams.net" agent="Mozilla/5.0 (X11; Linux x86_64; rv:139.0) Gecko/20100101 Firefox/139.0" version="27.1.4">
  <diagram name="Page-1" id="egReWG24xreW2HrMgTnp">
    <mxGraphModel dx="1228" dy="1258" grid="1" gridSize="10" guides="1" tooltips="1" connect="1" arrows="1" fold="1" page="1" pageScale="1" pageWidth="850" pageHeight="1100" math="0" shadow="0">
      <root>
        <mxCell id="0" />
        <mxCell id="1" parent="0" />
        <mxCell id="EdsZLTcKvzloFc_HfE6S-5" value="Player" style="swimlane;fontStyle=1;align=center;verticalAlign=top;childLayout=stackLayout;horizontal=1;startSize=26;horizontalStack=0;resizeParent=1;resizeParentMax=0;resizeLast=0;collapsible=1;marginBottom=0;whiteSpace=wrap;html=1;" parent="1" vertex="1">
          <mxGeometry x="280" y="120" width="160" height="420" as="geometry" />
        </mxCell>
        <mxCell id="EdsZLTcKvzloFc_HfE6S-6" value="&lt;div&gt;+ Health: int&lt;/div&gt;&lt;div&gt;+ Hand: Card[]&lt;/div&gt;&lt;div&gt;+ DiscardPile: Card[]&lt;/div&gt;&lt;div&gt;+ DrawPile: Card[]&lt;/div&gt;" style="text;strokeColor=none;fillColor=none;align=left;verticalAlign=top;spacingLeft=4;spacingRight=4;overflow=hidden;rotatable=0;points=[[0,0.5],[1,0.5]];portConstraint=eastwest;whiteSpace=wrap;html=1;" parent="EdsZLTcKvzloFc_HfE6S-5" vertex="1">
          <mxGeometry y="26" width="160" height="174" as="geometry" />
        </mxCell>
        <mxCell id="EdsZLTcKvzloFc_HfE6S-7" value="" style="line;strokeWidth=1;fillColor=none;align=left;verticalAlign=middle;spacingTop=-1;spacingLeft=3;spacingRight=3;rotatable=0;labelPosition=right;points=[];portConstraint=eastwest;strokeColor=inherit;" parent="EdsZLTcKvzloFc_HfE6S-5" vertex="1">
          <mxGeometry y="200" width="160" height="8" as="geometry" />
        </mxCell>
        <mxCell id="EdsZLTcKvzloFc_HfE6S-8" value="&lt;div&gt;+ CheckHand(): void&lt;/div&gt;&lt;div&gt;+ PlayCard(Card): void&lt;/div&gt;&lt;div&gt;+ DiscardCard(Card): void&lt;/div&gt;&lt;div&gt;+ Draw(): void&lt;/div&gt;" style="text;strokeColor=none;fillColor=none;align=left;verticalAlign=top;spacingLeft=4;spacingRight=4;overflow=hidden;rotatable=0;points=[[0,0.5],[1,0.5]];portConstraint=eastwest;whiteSpace=wrap;html=1;" parent="EdsZLTcKvzloFc_HfE6S-5" vertex="1">
          <mxGeometry y="208" width="160" height="212" as="geometry" />
        </mxCell>
        <mxCell id="J8-E4HJ2FDCrZpkUXHY7-7" value="Card" style="swimlane;fontStyle=1;align=center;verticalAlign=top;childLayout=stackLayout;horizontal=1;startSize=26;horizontalStack=0;resizeParent=1;resizeParentMax=0;resizeLast=0;collapsible=1;marginBottom=0;whiteSpace=wrap;html=1;" parent="1" vertex="1">
          <mxGeometry x="40" y="120" width="160" height="420" as="geometry" />
        </mxCell>
        <mxCell id="J8-E4HJ2FDCrZpkUXHY7-8" value="&lt;div&gt;+ InHand: bool&lt;/div&gt;&lt;div&gt;+ Discarded: bool&lt;/div&gt;&lt;div&gt;+ InPlay: bool&lt;/div&gt;&lt;div&gt;+ Type: CardTypeEnum&lt;/div&gt;&lt;div&gt;+ Damage: int&lt;/div&gt;&lt;div&gt;+ Cost: int&lt;/div&gt;" style="text;strokeColor=none;fillColor=none;align=left;verticalAlign=top;spacingLeft=4;spacingRight=4;overflow=hidden;rotatable=0;points=[[0,0.5],[1,0.5]];portConstraint=eastwest;whiteSpace=wrap;html=1;" parent="J8-E4HJ2FDCrZpkUXHY7-7" vertex="1">
          <mxGeometry y="26" width="160" height="174" as="geometry" />
        </mxCell>
        <mxCell id="J8-E4HJ2FDCrZpkUXHY7-9" value="" style="line;strokeWidth=1;fillColor=none;align=left;verticalAlign=middle;spacingTop=-1;spacingLeft=3;spacingRight=3;rotatable=0;labelPosition=right;points=[];portConstraint=eastwest;strokeColor=inherit;" parent="J8-E4HJ2FDCrZpkUXHY7-7" vertex="1">
          <mxGeometry y="200" width="160" height="8" as="geometry" />
        </mxCell>
        <mxCell id="J8-E4HJ2FDCrZpkUXHY7-10" value="+ method(type): type" style="text;strokeColor=none;fillColor=none;align=left;verticalAlign=top;spacingLeft=4;spacingRight=4;overflow=hidden;rotatable=0;points=[[0,0.5],[1,0.5]];portConstraint=eastwest;whiteSpace=wrap;html=1;" parent="J8-E4HJ2FDCrZpkUXHY7-7" vertex="1">
          <mxGeometry y="208" width="160" height="212" as="geometry" />
        </mxCell>
      </root>
    </mxGraphModel>
  </diagram>
</mxfile>
